<?xml version="1.0" standalone="no"?>
<svg xmlns:xlink="http://www.w3.org/1999/xlink" id="wave" style="transform:rotate(0deg); transition: 0.3s" viewBox="0 0 1440 490" version="1.1" xmlns="http://www.w3.org/2000/svg"><defs><linearGradient id="sw-gradient-0" x1="0" x2="0" y1="1" y2="0"><stop stop-color="rgba(12, 55, 112, 1)" offset="0%"/><stop stop-color="rgba(12, 55, 112, 1)" offset="100%"/></linearGradient></defs><path style="transform:translate(0, 0px); opacity:1" fill="url(#sw-gradient-0)" d="M0,0L40,16.3C80,33,160,65,240,130.7C320,196,400,294,480,326.7C560,359,640,327,720,302.2C800,278,880,261,960,285.8C1040,310,1120,376,1200,383.8C1280,392,1360,343,1440,277.7C1520,212,1600,131,1680,114.3C1760,98,1840,147,1920,147C2000,147,2080,98,2160,114.3C2240,131,2320,212,2400,236.8C2480,261,2560,229,2640,212.3C2720,196,2800,196,2880,163.3C2960,131,3040,65,3120,65.3C3200,65,3280,131,3360,196C3440,261,3520,327,3600,310.3C3680,294,3760,196,3840,179.7C3920,163,4000,229,4080,228.7C4160,229,4240,163,4320,114.3C4400,65,4480,33,4560,24.5C4640,16,4720,33,4800,65.3C4880,98,4960,147,5040,163.3C5120,180,5200,163,5280,171.5C5360,180,5440,212,5520,187.8C5600,163,5680,82,5720,40.8L5760,0L5760,490L5720,490C5680,490,5600,490,5520,490C5440,490,5360,490,5280,490C5200,490,5120,490,5040,490C4960,490,4880,490,4800,490C4720,490,4640,490,4560,490C4480,490,4400,490,4320,490C4240,490,4160,490,4080,490C4000,490,3920,490,3840,490C3760,490,3680,490,3600,490C3520,490,3440,490,3360,490C3280,490,3200,490,3120,490C3040,490,2960,490,2880,490C2800,490,2720,490,2640,490C2560,490,2480,490,2400,490C2320,490,2240,490,2160,490C2080,490,2000,490,1920,490C1840,490,1760,490,1680,490C1600,490,1520,490,1440,490C1360,490,1280,490,1200,490C1120,490,1040,490,960,490C880,490,800,490,720,490C640,490,560,490,480,490C400,490,320,490,240,490C160,490,80,490,40,490L0,490Z"/></svg>