<svg 
 xmlns="http://www.w3.org/2000/svg"
 xmlns:xlink="http://www.w3.org/1999/xlink"
 width="110px" height="148px">
<defs>
<linearGradient id="PSgrad_0" x1="0%" x2="70.711%" y1="0%" y2="70.711%">
  <stop offset="0%" stop-color="rgb(39,103,196)" stop-opacity="1" />
  <stop offset="23%" stop-color="rgb(93,102,193)" stop-opacity="1" />
  <stop offset="44%" stop-color="rgb(147,101,189)" stop-opacity="1" />
  <stop offset="73%" stop-color="rgb(185,51,141)" stop-opacity="1" />
  <stop offset="100%" stop-color="rgb(223,0,92)" stop-opacity="1" />
</linearGradient>
<linearGradient id="PSgrad_1" x1="0%" x2="100%" y1="0%" y2="0%">
  <stop offset="8%" stop-color="rgb(224,0,142)" stop-opacity="1" />
  <stop offset="71%" stop-color="rgb(112,0,71)" stop-opacity="1" />
  <stop offset="100%" stop-color="rgb(0,0,0)" stop-opacity="1" />
</linearGradient>
<linearGradient id="PSgrad_2" x1="0%" x2="70.711%" y1="0%" y2="70.711%">
  <stop offset="17%" stop-color="rgb(203,0,53)" stop-opacity="1" />
  <stop offset="62%" stop-color="rgb(229,128,154)" stop-opacity="1" />
  <stop offset="98%" stop-color="rgb(255,255,255)" stop-opacity="1" />
</linearGradient>
<linearGradient id="PSgrad_3" x1="0%" x2="70.711%" y1="0%" y2="70.711%">
  <stop offset="13%" stop-color="rgb(32,57,200)" stop-opacity="1" />
  <stop offset="100%" stop-color="rgb(0,0,0)" stop-opacity="1" />
</linearGradient>
<linearGradient id="PSgrad_4" x1="0%" x2="70.711%" y1="0%" y2="70.711%">
  <stop offset="0%" stop-color="rgb(96,148,224)" stop-opacity="1" />
  <stop offset="44%" stop-color="rgb(48,74,112)" stop-opacity="1" />
  <stop offset="96%" stop-color="rgb(0,0,0)" stop-opacity="1" />
</linearGradient>
<linearGradient id="PSgrad_5" x1="0%" x2="70.711%" y1="0%" y2="70.711%">
  <stop offset="6%" stop-color="rgb(0,0,0)" stop-opacity="1" />
  <stop offset="55%" stop-color="rgb(32,57,200)" stop-opacity="1" />
</linearGradient>

</defs>
<path fill-rule="evenodd"  fill="url(#PSgrad_0)"
 d="M51.605,0.985 C80.656,-2.71 109.580,46.849 109.568,85.485 C109.559,117.51 91.418,150.32 53.969,147.749 C-37.217,142.189 6.371,5.746 51.605,0.985 Z"/>
<path fill-rule="evenodd"  fill="url(#PSgrad_1)"
 d="M104.564,83.117 C98.263,86.545 91.869,82.5 82.231,81.819 C72.594,81.634 71.575,90.343 72.872,106.928 C74.169,123.513 68.424,136.578 55.172,142.971 C49.714,145.603 44.900,146.178 40.920,145.858 C43.87,146.371 45.358,146.788 47.727,147.112 C72.627,146.589 77.131,125.675 76.579,115.453 C76.23,105.168 79.729,106.928 87.513,107.948 C95.298,108.967 99.746,107.21 103.730,101.555 C106.376,97.925 108.621,93.249 109.473,89.205 C109.529,87.964 109.568,86.724 109.568,85.485 C109.569,84.884 109.541,84.273 109.527,83.666 C108.194,79.552 104.340,90.587 100.209,96.737 C96.39,102.944 82.695,102.203 80.285,97.385 C77.876,92.567 75.559,85.896 87.977,87.564 C100.394,89.232 103.360,86.452 107.252,82.375 C108.338,81.237 108.930,79.706 109.234,78.95 C109.162,77.276 109.61,76.452 108.966,75.629 C108.586,78.480 107.461,81.541 104.564,83.117 Z"/>
<path fill-rule="evenodd"  fill="url(#PSgrad_1)"
 d="M92.332,115.916 C86.309,113.229 84.548,111.468 80.378,119.159 C76.208,126.849 79.359,131.111 68.887,141.488 C65.359,144.984 58.887,146.794 52.821,147.651 C53.208,147.680 53.577,147.725 53.969,147.749 C56.633,147.911 59.187,147.876 61.656,147.695 C69.159,146.23 77.50,140.712 81.768,131.482 C86.621,121.987 87.977,124.255 95.761,124.872 C97.325,124.996 98.856,124.63 100.273,122.582 C102.574,118.544 104.440,114.190 105.883,109.648 C101.563,118.135 98.238,118.550 92.332,115.916 Z"/>
<path fill-rule="evenodd"  fill="url(#PSgrad_1)"
 d="M73.243,11.773 C74.725,18.815 72.686,21.687 62.926,21.502 C53.166,21.317 51.651,31.138 49.427,40.403 C47.203,49.669 42.847,66.439 28.855,70.516 C14.862,74.592 10.43,66.717 12.452,49.854 C14.854,33.48 22.592,22.770 26.954,16.123 C20.859,23.51 15.394,31.892 11.37,41.715 C6.409,54.488 7.274,79.689 17.794,80.708 C28.325,81.727 32.561,73.480 35.156,73.758 C37.751,74.37 31.820,90.807 20.793,90.899 C9.765,90.992 6.244,75.148 6.892,62.455 C7.153,57.358 8.294,50.772 9.186,46.137 C8.683,47.399 8.200,48.673 7.735,49.959 C1.873,72.19 6.174,104.52 23.16,101.184 C39.882,98.312 49.520,66.995 50.631,57.452 C51.744,47.908 53.41,32.342 55.728,27.802 C58.416,23.262 68.146,25.857 72.408,25.115 C76.671,24.374 77.413,18.166 74.169,10.383 C73.605,9.30 72.846,7.870 71.989,6.858 C70.590,5.927 69.177,5.68 67.746,4.339 C70.199,6.156 72.585,8.653 73.243,11.773 Z"/>
<path fill-rule="evenodd"  fill="url(#PSgrad_1)"
 d="M34.736,140.158 C42.920,141.542 58.45,137.226 61.474,132.594 C64.902,127.961 64.161,122.680 58.786,128.54 C53.412,133.427 42.847,139.172 31.171,138.523 C24.300,138.142 20.44,135.903 17.692,134.121 C20.856,136.988 24.493,139.495 28.667,141.547 C27.68,140.234 27.771,138.979 34.736,140.158 Z"/>
<path fill-rule="evenodd"  fill="url(#PSgrad_1)"
 d="M95.205,82.468 C85.104,78.762 80.656,72.91 72.872,76.538 C65.88,80.985 72.408,95.995 63.976,113.970 C55.543,131.945 34.693,137.133 21.71,129.814 C8.919,123.285 13.871,130.21 15.83,131.553 C13.175,129.523 11.468,127.347 9.962,125.35 C9.787,124.583 9.602,124.93 9.394,123.513 C8.97,119.900 10.228,121.568 16.901,126.15 C23.573,130.463 38.214,133.983 49.427,124.440 C60.640,114.897 57.860,95.995 58.786,80.615 C59.713,65.234 64.624,55.135 69.443,55.784 C74.262,56.432 78.617,68.848 90.201,73.666 C101.784,78.484 107.146,67.711 104.95,57.439 C101.43,47.167 104.564,61.714 98.634,66.254 C92.703,70.794 87.875,63.289 88.436,61.806 C88.996,60.324 95.205,66.625 99.97,55.136 C100.964,49.624 98.985,42.248 96.428,36.52 C101.794,46.205 105.836,57.583 107.938,68.849 C109.46,76.801 105.250,86.154 95.205,82.468 ZM75.467,65.976 C74.841,62.223 71.711,60.269 67.194,63.937 C60.918,69.33 60.722,85.994 62.308,86.359 C64.115,86.776 65.250,79.804 66.84,75.982 C66.918,72.160 69.490,70.6 71.88,69.659 C72.686,69.311 76.92,69.728 75.467,65.976 Z"/>
<path fill-rule="evenodd"  fill="rgb(224, 0, 142)"
 d="M39.395,14.831 C35.17,23.726 41.828,17.680 46.906,12.190 C51.984,6.701 49.960,6.909 46.906,5.311 C45.236,4.437 45.498,3.187 46.76,2.233 C45.486,2.431 44.897,2.651 44.310,2.890 C45.192,3.619 42.869,7.775 39.395,14.831 Z"/>
<path fill-rule="evenodd"  fill="url(#PSgrad_1)"
 d="M88.749,47.812 C80.810,51.700 75.96,47.352 67.775,43.832 C60.454,40.311 56.470,41.608 52.948,60.694 C49.427,79.781 45.535,108.133 28.206,109.430 C10.877,110.727 0.591,79.688 3.463,64.379 C2.965,66.523 2.524,68.681 2.146,70.845 C1.194,76.160 1.332,87.471 9.24,103.408 C16.715,119.344 38.678,113.692 43.681,111.468 C48.685,109.245 39.882,125.459 22.831,119.715 C5.780,113.970 3.186,87.842 3.464,100.269 C3.742,112.696 15.833,132.360 35.897,128.795 C55.962,125.229 57.211,90.807 56.284,75.148 C55.358,59.490 54.802,48.649 60.732,46.333 C66.663,44.17 73.150,56.62 86.123,56.62 C99.88,56.62 94.840,33.163 88.24,22.658 C85.85,18.713 81.938,15.159 78.637,12.118 C86.442,21.42 96.143,44.191 88.749,47.812 Z"/>
<path fill-rule="evenodd"  fill="url(#PSgrad_1)"
 d="M87.791,130.740 C85.104,131.18 84.919,135.466 76.579,142.600 C74.744,144.170 72.591,145.375 70.430,146.286 C77.473,144.477 83.543,141.175 88.665,136.808 C91.632,133.407 89.998,130.512 87.791,130.740 Z"/>
<path fill-rule="evenodd"  fill="url(#PSgrad_1)"
 d="M55.172,3.921 C56.283,6.988 61.983,9.689 57.744,12.885 C53.504,16.82 47.805,20.599 38.631,29.424 C29.457,38.249 28.414,28.103 32.168,21.988 C35.920,15.873 38.6,12.677 37.450,10.103 C37.116,8.558 37.947,6.821 39.392,5.374 C39.48,5.582 38.706,5.803 38.364,6.24 C31.156,13.223 32.710,16.722 28.692,21.363 C24.661,26.19 19.449,33.454 24.36,41.121 C28.623,48.787 37.172,43.530 44.886,34.893 C52.601,26.256 56.493,20.529 62.122,18.861 C67.752,17.194 70.289,12.311 63.999,8.838 C57.709,5.365 58.856,5.102 57.466,2.341 C57.190,1.793 56.719,1.349 56.182,0.956 C54.659,0.839 53.132,0.825 51.605,0.985 C51.356,1.12 51.108,1.64 50.860,1.98 C52.118,1.20 54.234,1.333 55.172,3.921 Z"/>
<path fill-rule="evenodd"  fill="url(#PSgrad_1)"
 d="M67.196,32.898 C67.265,34.497 68.308,36.164 72.895,39.361 C77.482,42.557 82.139,42.418 83.42,38.735 C83.946,35.52 77.899,36.790 73.729,34.893 C69.559,32.997 67.109,30.895 67.196,32.898 Z"/>
<path fill-rule="evenodd"  fill="rgb(224, 0, 142)"
 d="M41.550,45.59 C38.75,43.391 34.183,52.495 30.152,57.845 C26.121,63.196 19.518,63.543 19.254,65.142 C18.990,66.740 25.495,67.852 33.210,62.154 C40.925,56.455 44.214,46.338 41.550,45.59 Z"/>
<path fill-rule="evenodd"  opacity="0.749" fill="url(#PSgrad_2)"
 d="M53.962,147.745 C91.411,150.28 109.552,117.47 109.562,85.482 C109.572,50.166 85.406,6.283 59.66,1.332 C68.92,3.520 96.681,19.517 86.687,69.802 C76.602,120.554 5.588,131.901 0.812,95.770 L0.782,95.841 C2.881,122.798 17.841,145.543 53.962,147.745 Z"/>
<path fill-rule="evenodd"  fill="url(#PSgrad_3)"
 d="M59.66,1.332 C56.589,0.866 54.95,0.719 51.598,0.982 C24.283,3.857 -2.418,54.747 0.782,95.841 L0.812,95.770 C3.24,112.507 19.454,119.38 37.453,116.201 C7.927,116.933 26.990,69.566 53.683,43.857 C77.323,21.89 86.776,32.348 88.435,42.874 C85.688,13.520 66.229,3.69 59.66,1.332 Z"/>
<path fill-rule="evenodd"  fill="url(#PSgrad_4)"
 d="M22.647,22.698 C41.947,-6.873 67.128,-3.603 79.360,28.454 C91.592,60.512 39.490,115.91 19.311,96.500 C0.867,77.910 8.747,43.996 22.647,22.698 Z"/>
<path fill-rule="evenodd"  fill="rgb(255, 255, 255)"
 d="M24.423,29.137 C24.841,24.361 35.895,8.429 45.208,8.846 C54.521,9.263 22.404,52.208 24.423,29.137 Z"/>
<path fill-rule="evenodd"  fill="rgb(255, 255, 255)"
 d="M23.191,44.20 C23.734,41.497 23.948,32.579 20.587,35.459 C17.227,38.339 21.21,54.100 23.191,44.20 Z"/>
<path fill-rule="evenodd"  opacity="0.459" fill="url(#PSgrad_5)"
 d="M108.59,83.26 C108.61,74.24 106.485,64.465 103.710,55.136 C112.760,103.537 63.409,162.696 17.794,133.56 C26.93,139.899 37.441,144.374 52.459,145.290 C89.908,147.573 108.49,114.592 108.59,83.26 Z"/>
</svg>